<svg xmlns="http://www.w3.org/2000/svg" width="1200" height="1320" viewBox="0 0 1200 1320">
  <rect width="1200" height="1320" fill="#070708"/>
  <style>
    .h{font:800 30px Arial;fill:#f1f5f9}.label{font:900 12px Arial;letter-spacing:2px;fill:#2997ff}.title{font:800 18px Arial;fill:#f1f5f9}.body{font:14px Arial;fill:#a1a1aa}.small{font:12px Arial;fill:#86868b}.accent{font:800 12px Arial;fill:#2997ff}.code{font:11px Consolas;fill:#d2d2d7}.button{font:800 13px Arial;fill:#2997ff}
  </style>
  <text x="42" y="54" class="h">Affiliate distribution asset · daily attributed widget</text>
  <text x="42" y="84" class="body">EVIDÊNCIA DE PRODUÇÃO · 28 Aug 2026 · 11 external active affiliates · 7 with zero lifetime clicks</text>

  <g transform="translate(40 120)">
    <rect width="540" height="500" rx="18" fill="#101012" stroke="#29292d"/>
    <text x="20" y="32" class="label">BEFORE · DESKTOP</text>
    <rect x="20" y="50" width="500" height="420" rx="16" fill="#161618" stroke="#29292d"/>
    <text x="40" y="82" class="accent">PARTNER CAMPAIGN KIT</text>
    <text x="40" y="112" class="title">One-time sharing assets</text>
    <text x="40" y="138" class="body">Link, caption and speaking script.</text>
    <rect x="40" y="165" width="215" height="130" rx="13" fill="#111114" stroke="#29292d"/>
    <text x="55" y="192" class="title">Ready caption</text><text x="55" y="220" class="small">Useful once per post.</text>
    <rect x="275" y="165" width="215" height="130" rx="13" fill="#111114" stroke="#29292d"/>
    <text x="290" y="192" class="title">Speaking script</text><text x="290" y="220" class="small">Useful once per video.</text>
    <rect x="40" y="320" width="450" height="105" rx="13" fill="none" stroke="#35353a" stroke-dasharray="6"/>
    <text x="92" y="375" class="body">No durable attributed website asset.</text>
  </g>

  <g transform="translate(620 120)">
    <rect width="540" height="500" rx="18" fill="#101012" stroke="#29292d"/>
    <text x="20" y="32" class="label">AFTER · DESKTOP</text>
    <rect x="20" y="50" width="500" height="420" rx="16" fill="#161618" stroke="#2997ff" stroke-opacity=".5"/>
    <text x="40" y="82" class="accent">WEBSITE TRAFFIC THAT KEEPS WORKING</text>
    <text x="40" y="112" class="title">Put your link inside a daily Shorts idea</text>
    <text x="40" y="137" class="body">Paste once. The idea rotates daily.</text>
    <rect x="40" y="158" width="450" height="160" rx="12" fill="#000"/>
    <rect x="75" y="175" width="380" height="126" rx="13" fill="#161618" stroke="#2a2a2d"/>
    <text x="95" y="201" class="accent">💡 SHORTS IDEA OF THE DAY</text>
    <text x="95" y="231" class="title">A radio signal from space lasted 72 seconds.</text>
    <text x="95" y="263" class="small">Powered by</text><text x="164" y="263" class="accent">Kineo →</text>
    <rect x="40" y="335" width="450" height="52" rx="10" fill="#0d0d1c" stroke="#2a2a2d"/>
    <text x="53" y="365" class="code">widget/embed?affiliate=ABCD2345</text>
    <rect x="40" y="400" width="450" height="42" rx="10" fill="#11243a" stroke="#2997ff" stroke-opacity=".5"/>
    <text x="184" y="426" class="button">Copy attributed widget</text>
  </g>

  <g transform="translate(150 665)">
    <rect width="390" height="560" rx="22" fill="#101012" stroke="#29292d"/>
    <text x="20" y="34" class="label">BEFORE · MOBILE</text>
    <rect x="20" y="52" width="350" height="478" rx="16" fill="#161618" stroke="#29292d"/>
    <text x="40" y="85" class="accent">PARTNER CAMPAIGN KIT</text>
    <text x="40" y="116" class="title">Share and repeat manually</text>
    <rect x="40" y="145" width="310" height="115" rx="13" fill="#111114" stroke="#29292d"/>
    <text x="55" y="174" class="title">Caption</text><text x="55" y="202" class="small">Copy, paste, repeat.</text>
    <rect x="40" y="278" width="310" height="115" rx="13" fill="#111114" stroke="#29292d"/>
    <text x="55" y="307" class="title">Speaking script</text><text x="55" y="335" class="small">Record, publish, repeat.</text>
    <rect x="40" y="412" width="310" height="82" rx="13" fill="none" stroke="#35353a" stroke-dasharray="6"/>
    <text x="128" y="458" class="body">No website embed.</text>
  </g>

  <g transform="translate(660 665)">
    <rect width="390" height="560" rx="22" fill="#101012" stroke="#29292d"/>
    <text x="20" y="34" class="label">AFTER · MOBILE</text>
    <rect x="20" y="52" width="350" height="478" rx="16" fill="#161618" stroke="#2997ff" stroke-opacity=".5"/>
    <text x="40" y="84" class="accent">WEBSITE TRAFFIC THAT KEEPS WORKING</text>
    <text x="40" y="116" class="title">One embed, recurring opportunities</text>
    <rect x="40" y="143" width="310" height="180" rx="12" fill="#000"/>
    <rect x="54" y="158" width="282" height="150" rx="13" fill="#161618" stroke="#2a2a2d"/>
    <text x="70" y="187" class="accent">💡 DAILY IDEA</text>
    <text x="70" y="220" class="title">The shortest war in history</text>
    <text x="70" y="245" class="title">lasted 38 minutes.</text>
    <text x="70" y="282" class="small">Powered by</text><text x="138" y="282" class="accent">Kineo →</text>
    <rect x="40" y="341" width="310" height="55" rx="10" fill="#0d0d1c" stroke="#2a2a2d"/>
    <text x="54" y="373" class="code">embed?affiliate=ABCD2345</text>
    <rect x="40" y="414" width="310" height="46" rx="10" fill="#11243a" stroke="#2997ff" stroke-opacity=".5"/>
    <text x="110" y="443" class="button">Copy attributed widget</text>
    <text x="40" y="493" class="small">Public partner code only · no secret</text>
  </g>
  <rect x="40" y="1260" width="1120" height="36" rx="8" fill="#101824"/>
  <text x="58" y="1284" class="body">No Supabase read/write is added. Invalid codes fall back to the generic Kineo widget acquisition URL.</text>
</svg>
